<svg xmlns="http://www.w3.org/2000/svg" xmlns:xlink="http://www.w3.org/1999/xlink" width="0" height="0" style="display:none;"><symbol id="warcrow-font-Black-Dark"></symbol><symbol id="warcrow-font-Black"></symbol><symbol id="warcrow-font-Block"></symbol><symbol id="warcrow-font-Blue-Dark"></symbol><symbol id="warcrow-font-Blue-Light"></symbol><symbol id="warcrow-font-Blue"></symbol><symbol viewBox="0 0 77 75" id="warcrow-font-CommandSkill"><g id="Actions"><path id="Command" d="M49.072,1.525L45.959,4.388L45.74,4.346C43.326,3.813 40.798,3.552 38.27,3.552C35.763,3.552 33.255,3.813 30.873,4.325L30.654,4.388L27.541,1.525C26.465,0.522 25.127,0 23.769,0C22.954,0 22.119,0.188 21.314,0.575C19.204,1.609 17.992,3.688 18.17,6.028L18.441,9.779L18.243,9.935C13.751,13.122 10.052,17.374 7.534,22.242L7.42,22.44L4.745,22.858C2.426,23.203 0.66,24.843 0.148,27.142C-0.374,29.419 0.504,31.665 2.457,32.992L3.878,33.995L3.868,34.235C3.679,35.625 3.617,36.972 3.617,38.237C3.617,43.617 4.829,48.809 7.221,53.625L7.305,53.824L7.2,54.022C6.093,55.986 6.249,58.326 7.618,60.144C8.684,61.544 10.303,62.359 11.995,62.359C12.34,62.359 12.685,62.317 13.03,62.254L13.249,62.213L13.427,62.39C18.796,67.917 25.953,71.532 33.548,72.566L33.746,72.618L33.83,72.743C34.896,74.185 36.504,75 38.291,75C40.077,75 41.738,74.154 42.783,72.743L42.898,72.618L43.065,72.566C50.66,71.532 57.817,67.917 63.186,62.39L63.343,62.213L63.573,62.254C63.949,62.317 64.294,62.369 64.607,62.369C66.321,62.369 67.929,61.544 68.995,60.144C70.364,58.326 70.52,55.986 69.413,54.022L69.308,53.824L69.392,53.625C71.774,48.809 72.986,43.617 72.986,38.237C72.986,36.972 72.923,35.625 72.746,34.235L72.725,33.995L74.166,32.992C76.099,31.665 76.987,29.44 76.475,27.142C75.953,24.843 74.187,23.203 71.847,22.858L69.193,22.44L69.079,22.242C66.571,17.374 62.852,13.122 58.37,9.935L58.172,9.779L58.433,6.028C58.611,3.688 57.399,1.588 55.278,0.575C54.484,0.188 53.659,0 52.844,0C51.475,0 50.138,0.522 49.072,1.525M54.285,7.47C53.053,6.832 51.768,6.247 50.462,5.767L49.824,5.516L51.412,4.043C51.789,3.656 52.3,3.458 52.833,3.458L52.917,3.458C53.512,3.489 54.066,3.751 54.484,4.2C54.881,4.618 55.059,5.14 54.996,5.788L54.86,7.773L54.285,7.47ZM21.596,5.767C21.555,5.14 21.732,4.618 22.119,4.179C22.547,3.751 23.101,3.489 23.696,3.458L23.769,3.458C24.292,3.458 24.824,3.688 25.221,4.043L26.789,5.516L26.151,5.767C24.845,6.247 23.539,6.832 22.328,7.47L21.753,7.773L21.596,5.767ZM34.896,8.285L33.631,7.125L34.561,7.02C35.804,6.864 37.058,6.791 38.301,6.791C39.565,6.791 40.83,6.864 42.073,7.02L42.992,7.125L41.718,8.305C40.767,9.183 39.524,9.632 38.312,9.632C37.079,9.632 35.836,9.183 34.896,8.285M44.058,10.823L47.108,8.013L47.328,8.086C49.804,8.828 52.165,9.873 54.369,11.199L54.588,11.335L54.285,15.754C53.951,20.142 57.106,24.091 61.463,24.739L67.115,25.627L67.229,25.836C68.065,27.821 68.702,29.879 69.131,31.958L69.193,32.24L63.98,35.792C60.366,38.299 59.237,43.22 61.41,47.023L65.464,54.064L65.328,54.283C64.555,55.61 63.657,56.916 62.633,58.149L62.434,58.368L54.359,55.903C53.533,55.631 52.687,55.527 51.851,55.527C48.362,55.527 45.27,57.616 43.974,60.896L40.547,69.62L40.265,69.62C39.639,69.651 38.98,69.682 38.312,69.682C37.654,69.682 36.985,69.651 36.348,69.62L36.087,69.62L32.639,60.896C31.354,57.616 28.272,55.527 24.751,55.527C23.916,55.527 23.08,55.631 22.286,55.903L14.179,58.368L13.98,58.149C12.967,56.916 12.058,55.61 11.285,54.283L11.149,54.064L15.192,47.023C17.386,43.22 16.258,38.268 12.622,35.792L7.42,32.24L7.482,31.958C7.911,29.879 8.548,27.821 9.384,25.836L9.499,25.627L15.15,24.739C19.496,24.091 22.662,20.142 22.349,15.754L22.025,11.335L22.234,11.199C24.469,9.873 26.83,8.807 29.285,8.086L29.505,8.013L32.545,10.823C34.122,12.286 36.149,13.069 38.291,13.069C40.443,13.069 42.491,12.286 44.058,10.823M61.975,21.333C59.384,20.936 57.534,18.596 57.712,16.015L57.879,13.644L58.527,14.177C60.867,16.141 62.915,18.439 64.576,21.02L65.109,21.814L61.975,21.333ZM12.016,21.02C13.688,18.471 15.746,16.141 18.086,14.177L18.723,13.644L18.911,16.015C19.079,18.596 17.209,20.936 14.639,21.333L11.504,21.814L12.016,21.02ZM71.889,29.618C71.669,28.709 71.398,27.8 71.095,26.901L70.813,26.128L71.596,26.348C72.746,26.661 73.059,27.622 73.101,27.915C73.184,28.249 73.299,29.085 72.641,29.816L72.087,30.391L71.889,29.618ZM3.972,29.816C3.293,29.043 3.439,28.165 3.502,27.894C3.638,27.319 4.108,26.588 5.006,26.348L5.779,26.128L5.518,26.901C5.205,27.8 4.944,28.74 4.724,29.618L4.526,30.391L3.972,29.816ZM64.398,45.288C63.103,43.042 63.761,40.127 65.924,38.644L69.685,36.084L69.747,37.286C69.747,37.589 69.768,37.902 69.768,38.237C69.768,42.144 69.058,45.947 67.647,49.561L67.334,50.397L64.398,45.288ZM8.966,49.561C7.545,45.947 6.845,42.144 6.845,38.237C6.845,37.902 6.866,37.589 6.866,37.286L6.929,36.084L10.69,38.644C12.831,40.127 13.51,43.042 12.215,45.288L9.269,50.397L8.966,49.561ZM47.171,62.15C47.954,60.196 49.856,58.964 51.872,58.964C52.353,58.964 52.854,59.037 53.335,59.193L59.812,61.178L59.237,61.68C55.257,65.242 50.42,67.739 45.249,68.899L44.455,69.076L47.171,62.15ZM31.354,68.899C26.193,67.739 21.356,65.242 17.386,61.68L16.801,61.178L23.278,59.193C23.759,59.037 24.26,58.964 24.751,58.964C26.757,58.964 28.659,60.196 29.442,62.15L32.158,69.076L31.354,68.899Z"></path></g><g id="Combat"></g><g id="Characters"></g><g id="Blue"></g><g id="Green"></g><g id="Yellow"></g><g id="Orange"></g><g id="Red"></g><g id="Black"></g><g id="Blue1" serif:id="Blue"></g><g id="Green1" serif:id="Green"></g><g id="Yellow1" serif:id="Yellow"></g><g id="Orange1" serif:id="Orange"></g><g id="Red1" serif:id="Red"></g></symbol><symbol viewBox="0 0 48 75" id="warcrow-font-Defense"><g id="Actions"></g><g id="Combat"><path id="Defense" d="M46.574,58.98L46.469,58.98C46.942,63.869 47.31,67.549 47.521,70.019L39.741,72.437C29.017,75.854 18.293,75.854 7.57,72.437L-0,70.019L5.362,25.232C12.222,21.947 19.923,20.711 28.491,21.552C34.51,22.131 39.346,23.55 43,25.863L46.574,58.98ZM31.856,65.393L31.856,45.944C31.856,43.631 31.015,41.712 29.332,40.161C27.65,38.558 25.653,37.822 23.34,37.953C21.158,38.032 19.345,38.9 17.873,40.582C16.401,42.264 15.665,44.235 15.665,46.469L15.665,65.393C18.109,66.918 20.817,67.706 23.76,67.706C26.704,67.706 29.385,66.918 31.856,65.393ZM45.733,23.655C38.426,19.66 31.12,17.663 23.76,17.663C16.453,17.663 9.147,19.66 1.787,23.655L1.787,6.098L10.829,1.472L10.829,10.303C11.801,10.04 13.168,9.725 14.929,9.357C16.743,8.936 18.188,8.674 19.24,8.516L19.24,-0L28.386,-0L28.386,8.621C29.438,8.831 30.909,9.147 32.802,9.567C34.747,9.935 36.087,10.172 36.797,10.303L36.797,1.472L45.733,6.098L45.733,23.655Z" style="fill-rule:nonzero;"></path></g><g id="Characters"></g><g id="Blue"></g><g id="Green"></g><g id="Yellow"></g><g id="Orange"></g><g id="Red"></g><g id="Black"></g><g id="Blue1" serif:id="Blue"></g><g id="Green1" serif:id="Green"></g><g id="Yellow1" serif:id="Yellow"></g><g id="Orange1" serif:id="Orange"></g><g id="Red1" serif:id="Red"></g></symbol><symbol id="warcrow-font-Green-Dark"></symbol><symbol id="warcrow-font-Green-Light"></symbol><symbol id="warcrow-font-Green"></symbol><symbol id="warcrow-font-Hollow-Block"></symbol><symbol id="warcrow-font-Hollow-Special"></symbol><symbol id="warcrow-font-HollowSuccess"></symbol><symbol viewBox="0 0 78 75" id="warcrow-font-LongAction"><path id="Full-Action" serif:id="Full Action" d="M64.343,37.5L30.764,12.969L30.764,20.509L53.385,37.5L-0,75L0.201,16.89L28.351,37.5L6.334,52.681L6.334,60.925L39.812,37.5L24.43,24.531L24.43,0L77.916,37.5L30.965,71.682L30.965,61.729L64.343,37.5Z" style="fill-rule:nonzero;"></path><g id="Actions"></g><g id="Combat"></g><g id="Characters"></g><g id="Blue"></g><g id="Green"></g><g id="Yellow"></g><g id="Orange"></g><g id="Red"></g><g id="Black"></g><g id="Blue1" serif:id="Blue"></g><g id="Green1" serif:id="Green"></g><g id="Yellow1" serif:id="Yellow"></g><g id="Orange1" serif:id="Orange"></g><g id="Red1" serif:id="Red"></g></symbol><symbol viewBox="0 0 75 75" id="warcrow-font-MeleeAttack"><g id="Actions"></g><g id="Combat"><path id="Melee-Attack" serif:id="Melee Attack" d="M0,0L8.646,1.716L49.255,36.793L47.774,38.274L33.637,33.587L38.324,47.723L36.843,49.205L1.716,8.646L0,0ZM53.13,40.534C54.528,41.764 60.805,42.995 70.313,34.692L71.401,35.78C71.401,35.78 60.454,50.31 63.14,55.03L70.547,66.63L73.795,67.158L75,75L67.149,73.795L66.622,70.547L55.239,63.274L55.231,63.266L55.097,63.174C50.418,60.378 35.78,71.401 35.78,71.401L34.684,70.313C42.995,60.805 41.764,54.528 40.542,53.139L42.811,50.862L38.827,38.827L50.862,42.819L53.13,40.534ZM48.594,56.729L60.738,60.747L56.729,48.594L44.576,44.576L48.594,56.729Z"></path></g><g id="Characters"></g><g id="Blue"></g><g id="Green"></g><g id="Yellow"></g><g id="Orange"></g><g id="Red"></g><g id="Black"></g><g id="Blue1" serif:id="Blue"></g><g id="Green1" serif:id="Green"></g><g id="Yellow1" serif:id="Yellow"></g><g id="Orange1" serif:id="Orange"></g><g id="Red1" serif:id="Red"></g></symbol><symbol viewBox="0 0 62 75" id="warcrow-font-Officer"><g id="Actions"></g><g id="Combat"></g><g id="Characters"><path id="Officer" d="M30.542,0C30.175,0.014 29.816,0.122 29.413,0.324C25.523,2.38 21.589,4.358 17.705,6.408C12.628,9.076 8.558,13.009 5.408,18.115C1.589,24.286 0.014,31.175 0,38.554L0,44.839C0.007,50.686 0.029,56.532 0.029,62.386C0.029,63.501 0.446,64.206 1.359,64.644C8.371,68.053 15.375,71.469 22.366,74.878C22.452,74.914 22.531,74.935 22.61,74.964C22.675,74.202 22.739,73.447 22.783,72.692C23.358,63.817 23.969,54.943 24.545,46.069C24.681,44.062 24.135,43.372 22.236,43.12C17.885,42.538 13.52,41.991 9.162,41.48C8.177,41.358 7.817,40.92 7.853,39.92C7.903,37.849 7.932,35.785 7.918,33.714C7.889,32.772 8.177,32.426 9.076,32.455C12.384,32.506 15.685,32.506 19,32.534C22.013,32.549 23.394,32.563 23.322,35.756C23.286,37.029 23.329,38.208 24.365,39.15C26.364,40.963 26.939,41.473 28.924,43.293C29.507,43.832 30.046,44.098 30.578,44.091C31.11,44.098 31.643,43.832 32.232,43.293C34.217,41.473 34.792,40.963 36.799,39.15C37.834,38.208 37.87,37.029 37.834,35.756C37.77,32.563 39.143,32.549 42.156,32.534C45.472,32.506 48.773,32.506 52.081,32.455C52.987,32.426 53.267,32.772 53.239,33.714C53.224,35.785 53.253,37.849 53.303,39.92C53.339,40.92 52.987,41.358 52.002,41.48C47.636,41.991 43.271,42.538 38.928,43.12C37.022,43.372 36.482,44.062 36.612,46.069C37.194,54.943 37.798,63.817 38.374,72.692C38.424,73.447 38.482,74.223 38.546,75C38.554,75 38.561,75 38.568,74.993C38.92,74.878 39.266,74.698 39.618,74.518C46.356,71.246 53.088,67.945 59.84,64.695C60.768,64.234 61.171,63.573 61.156,62.444C61.135,57.834 61.142,53.224 61.142,48.607C61.142,47.536 61.142,46.457 61.135,45.378C61.106,43.487 61.149,41.596 61.156,39.697L61.156,38.438C61.142,36.655 61.084,34.879 60.883,33.124C59.589,21.654 54.253,12.909 45.026,7.299C40.79,4.718 36.274,2.704 31.916,0.374C31.492,0.137 31.103,0.014 30.715,0L30.542,0ZM27.4,11.485C27.4,9.723 28.823,8.299 30.578,8.299C32.333,8.299 33.757,9.723 33.757,11.485C33.757,13.247 32.333,14.671 30.578,14.671C28.823,14.671 27.4,13.247 27.4,11.485M27.4,21.725C27.4,19.971 28.823,18.547 30.578,18.547C32.333,18.547 33.757,19.971 33.757,21.725C33.757,23.487 32.333,24.904 30.578,24.904C28.823,24.904 27.4,23.487 27.4,21.725"></path></g><g id="Blue"></g><g id="Green"></g><g id="Yellow"></g><g id="Orange"></g><g id="Red"></g><g id="Black"></g><g id="Blue1" serif:id="Blue"></g><g id="Green1" serif:id="Green"></g><g id="Yellow1" serif:id="Yellow"></g><g id="Orange1" serif:id="Orange"></g><g id="Red1" serif:id="Red"></g></symbol><symbol id="warcrow-font-Orange-Dark"></symbol><symbol id="warcrow-font-Orange-Light"></symbol><symbol id="warcrow-font-Orange"></symbol><symbol viewBox="0 0 83 75" id="warcrow-font-PassiveSkill"><g id="Actions"><path id="Passive" d="M41.156,47.771C41.156,47.771 43.111,75 67.043,75C71.381,75 76.446,74.106 82.364,71.984C78.297,49.601 65.983,44.64 55.873,44.64C47.823,44.64 41.156,47.771 41.156,47.771M50.714,58.889C49.414,56.414 48.582,53.886 48.062,51.827C50.194,51.255 52.93,50.735 55.873,50.735C65.546,50.735 71.89,56.341 75.146,67.813C72.223,68.531 69.519,68.895 67.043,68.895C59.596,68.895 54.261,65.618 50.714,58.889M-0,69.311L-0,71.495C5.824,73.533 10.827,74.407 15.112,74.407C38.961,74.407 41.156,47.771 41.156,47.771C41.156,47.771 34.125,44.37 25.773,44.37C15.965,44.37 4.337,49.04 -0,69.311M6.813,67.179C10.026,55.956 16.256,50.465 25.773,50.465C28.935,50.465 31.92,51.089 34.198,51.733C33.657,53.72 32.825,56.143 31.525,58.515C27.926,65.098 22.57,68.302 15.112,68.302C12.575,68.302 9.798,67.927 6.813,67.179M41.156,47.771C41.156,47.771 72.701,26.408 41.52,-0C10.349,26.408 41.156,47.771 41.156,47.771M33.699,24.993C33.449,19.553 36.08,13.958 41.52,8.341C46.866,13.875 49.435,19.377 49.164,24.733C48.832,31.234 44.463,36.632 41.208,39.773C38.108,36.663 33.979,31.358 33.699,24.993" style="fill:rgb(1,1,1);"></path></g><g id="Combat"></g><g id="Characters"></g><g id="Blue"></g><g id="Green"></g><g id="Yellow"></g><g id="Orange"></g><g id="Red"></g><g id="Black"></g><g id="Blue1" serif:id="Blue"></g><g id="Green1" serif:id="Green"></g><g id="Yellow1" serif:id="Yellow"></g><g id="Orange1" serif:id="Orange"></g><g id="Red1" serif:id="Red"></g></symbol><symbol viewBox="0 0 75 75" id="warcrow-font-RangedAttack"><g id="Actions"></g><g id="Combat"><path id="Ranged-Attack" serif:id="Ranged Attack" d="M4.206,0.347C2.337,1.353 0.966,3.026 0.344,5.072C-0.271,7.11 -0.057,9.264 0.949,11.141C1.945,13.019 3.627,14.381 5.674,15.004C6.413,15.226 7.169,15.342 7.925,15.342C8.406,15.351 8.895,15.315 9.367,15.226L32.905,38.906L14.956,56.748L8.664,56.099L0.005,64.713L8.05,66.76L10.043,74.813L18.711,66.199L18.132,60.29L36.26,42.279L59.735,65.896C59.681,66.279 59.646,66.68 59.655,67.08C59.664,67.827 59.77,68.584 59.993,69.322C60.616,71.369 61.986,73.042 63.855,74.048C65.021,74.68 66.293,74.991 67.575,75L67.673,75C68.42,74.991 69.185,74.875 69.924,74.653C71.971,74.039 73.644,72.668 74.658,70.791L74.996,70.141L70.627,67.792L70.271,68.442C69.897,69.153 69.266,69.67 68.491,69.901C67.726,70.132 66.907,70.052 66.204,69.678C65.501,69.296 64.976,68.664 64.745,67.89C64.647,67.552 64.603,67.196 64.62,66.849L64.861,66.368C68.082,59.747 68.812,51.623 66.934,43.525C65.19,35.987 61.381,28.868 55.873,22.79L64.656,14.051L65.991,19.409L73.395,1.673L55.624,8.979L61.515,10.474L52.518,19.417C46.467,13.864 39.374,10.011 31.855,8.214C24.175,6.389 16.486,6.923 10.043,9.682L10.034,9.673L9.937,9.727C9.616,9.878 9.305,10.011 8.984,10.163L8.744,10.278C8.21,10.421 7.65,10.412 7.107,10.252C6.332,10.02 5.701,9.495 5.318,8.792C4.944,8.089 4.864,7.27 5.096,6.505C5.327,5.731 5.852,5.099 6.555,4.725L7.205,4.369L4.855,0L4.206,0.347ZM14.484,13.331C25.358,9.949 38.831,13.722 48.994,22.924L36.429,35.409L14.484,13.331ZM39.775,38.781L52.34,26.296C61.479,36.503 65.172,50.003 61.719,60.86L39.775,38.781Z"></path></g><g id="Characters"></g><g id="Blue"></g><g id="Green"></g><g id="Yellow"></g><g id="Orange"></g><g id="Red"></g><g id="Black"></g><g id="Blue1" serif:id="Blue"></g><g id="Green1" serif:id="Green"></g><g id="Yellow1" serif:id="Yellow"></g><g id="Orange1" serif:id="Orange"></g><g id="Red1" serif:id="Red"></g></symbol><symbol id="warcrow-font-Red"></symbol><symbol id="warcrow-font-RedDark"></symbol><symbol id="warcrow-font-RedLight"></symbol><symbol viewBox="0 0 78 75" id="warcrow-font-Skill"><g id="Actions"><path id="Ability" d="M38.552,0.01C35.72,0.1 33.207,1.875 32.18,4.517C31.881,5.285 25.239,21.32 6.282,23.484C2.702,23.893 0,26.925 0,30.515C0,32.669 0.967,34.693 2.623,36.029C3.161,36.478 16.434,47.756 12.635,66.504C12.056,69.296 13.233,72.168 15.586,73.773C16.793,74.591 18.179,75 19.575,75C20.921,75 22.258,74.611 23.434,73.853C23.464,73.833 30.395,69.515 39.838,69.515C45.263,69.515 50.538,70.941 55.505,73.753C56.592,74.372 57.798,74.671 58.985,74.671C60.531,74.671 62.056,74.162 63.333,73.185C65.586,71.44 66.574,68.498 65.826,65.746C65.656,65.078 61.548,48.145 75.648,35.211C77.752,33.287 78.49,30.285 77.523,27.603C76.566,24.91 74.073,23.075 71.221,22.926C70.542,22.876 53.161,21.56 45.223,4.148C44.077,1.625 41.544,0 38.781,0C38.702,0 38.632,0 38.552,0.01M7.08,30.525L7.08,30.515C30.854,27.812 38.781,7.09 38.781,7.09C48.714,28.859 70.862,29.996 70.862,29.996C53.231,46.161 58.985,67.591 58.985,67.591C52.174,63.732 45.602,62.435 39.838,62.435C27.992,62.435 19.575,67.92 19.575,67.92C24.342,44.465 7.08,30.525 7.08,30.525"></path></g><g id="Combat"></g><g id="Characters"></g><g id="Blue"></g><g id="Green"></g><g id="Yellow"></g><g id="Orange"></g><g id="Red"></g><g id="Black"></g><g id="Blue1" serif:id="Blue"></g><g id="Green1" serif:id="Green"></g><g id="Yellow1" serif:id="Yellow"></g><g id="Orange1" serif:id="Orange"></g><g id="Red1" serif:id="Red"></g></symbol><symbol id="warcrow-font-Special"></symbol><symbol viewBox="0 0 56 75" id="warcrow-font-Spell"><g id="Actions"><path id="Spell" d="M25.463,1.044C25.148,1.72 25.031,2.494 25.031,3.277C25.067,6.554 25.022,9.822 25.058,13.099C25.094,16.323 24.347,19.366 22.96,22.256C20.647,27.072 16.919,30.484 12.22,32.888C9.186,34.446 5.891,34.95 2.532,35.085C1.146,35.148 0.174,36.012 0.012,37.408C-0.114,38.488 0.804,39.551 1.965,39.929C3.154,40.307 4.369,40.1 5.566,40.262C8.06,40.595 10.446,41.189 12.625,42.35C15.839,44.043 18.684,46.213 20.854,49.211C23.429,52.776 24.824,56.719 25.04,61.077C25.139,62.878 25.058,64.678 25.058,66.479L25.058,72.493C25.058,73.852 25.904,74.924 27.03,74.987C28.947,75.104 29.938,74.455 30.109,72.853C30.208,71.899 30.136,70.917 30.19,69.954C30.352,66.533 29.866,63.121 30.244,59.699C30.586,56.665 31.504,53.847 33.089,51.273C34.187,49.49 35.34,47.698 36.879,46.249C38.887,44.349 41.138,42.774 43.749,41.774C45.144,41.252 46.531,40.739 48.025,40.469C49.736,40.154 51.482,40.244 53.193,39.911C54.273,39.695 55.074,38.83 55.119,37.678C55.155,36.318 54.624,35.562 53.427,35.301C51.824,34.941 50.168,34.995 48.547,34.734C45.423,34.23 42.506,33.131 39.967,31.358C36.564,29.008 33.827,25.938 32.144,22.058C30.991,19.393 30.136,16.665 30.163,13.712C30.199,10.642 30.163,7.572 30.163,4.493C30.154,3.502 30.1,2.521 29.884,1.558C29.668,0.585 28.893,0.153 28.011,0.036C27.786,0.009 27.552,0 27.318,0C26.562,0 25.841,0.207 25.463,1.044M27.264,50.471C26.508,48.968 25.634,47.545 24.644,46.195C21.853,42.378 18.27,39.533 13.912,37.597C15.497,36.625 17.171,35.814 18.693,34.734C22.366,32.141 25.094,28.774 27.111,24.794C27.237,24.551 27.264,24.119 27.606,24.119C27.93,24.137 27.948,24.533 28.083,24.785C30.937,30.151 34.944,34.392 40.462,37.111C40.679,37.21 41.048,37.264 41.048,37.525C41.057,37.831 40.679,37.795 40.462,37.921C37.212,39.614 34.232,41.657 31.891,44.547C30.388,46.393 28.938,48.284 28.056,50.525C27.948,50.786 27.75,50.795 27.606,50.831C27.588,50.84 27.57,50.84 27.543,50.84C27.381,50.84 27.336,50.624 27.264,50.471"></path></g><g id="Combat"></g><g id="Characters"></g><g id="Blue"></g><g id="Green"></g><g id="Yellow"></g><g id="Orange"></g><g id="Red"></g><g id="Black"></g><g id="Blue1" serif:id="Blue"></g><g id="Green1" serif:id="Green"></g><g id="Yellow1" serif:id="Yellow"></g><g id="Orange1" serif:id="Orange"></g><g id="Red1" serif:id="Red"></g></symbol><symbol viewBox="0 0 42 75" id="warcrow-font-Stress"><path id="Stress" d="M41.195,33.136C41.195,33.662 41.099,34.092 40.908,34.474L40.622,35.143C26.404,60.137 19.068,73.088 18.638,74.044C18.184,74.355 17.802,74.618 17.491,74.809C17.3,74.928 17.037,75 16.727,75C16.153,74.857 15.723,74.665 15.484,74.427L15.484,74.235L15.006,73.662L19.69,44.701C16.679,44.51 13.859,44.39 11.183,44.319C8.507,44.199 6.404,44.104 4.875,44.032C3.393,43.913 2.485,43.841 2.103,43.841C1.386,43.721 0.884,43.459 0.573,43.076C0.191,42.694 -0,42.359 -0,42.025L-0,41.451L23.13,0.256C24.277,-0.054 25.161,-0.078 25.807,0.161C26.117,0.161 26.404,0.328 26.667,0.639L26.954,1.499L21.506,30.651C32.258,31.177 38.423,31.559 39.953,31.798C40.335,31.989 40.645,32.228 40.908,32.467C41.099,32.73 41.195,32.945 41.195,33.136Z" style="fill-rule:nonzero;"></path><g id="Actions"></g><g id="Combat"></g><g id="Characters"></g><g id="Blue"></g><g id="Green"></g><g id="Yellow"></g><g id="Orange"></g><g id="Red"></g><g id="Black"></g><g id="Blue1" serif:id="Blue"></g><g id="Green1" serif:id="Green"></g><g id="Yellow1" serif:id="Yellow"></g><g id="Orange1" serif:id="Orange"></g><g id="Red1" serif:id="Red"></g></symbol><symbol id="warcrow-font-Success"></symbol><symbol viewBox="0 0 77 75" id="warcrow-font-Support"><g id="Actions"></g><g id="Combat"></g><g id="Characters"><path id="Support" d="M9.221,0L53.138,0C53.138,0 42.953,6.54 49.703,22.79L3.594,22.79C3.594,22.79 0.863,17.492 0.836,11.847L0.836,11.692C0.863,7.115 2.69,2.338 9.221,0ZM52.142,15.829C52.142,15.829 50.471,0.384 62.637,0.384C63.733,0.384 64.939,0.502 66.263,0.776C82.358,4.074 74.265,22.79 74.265,22.79C74.265,22.79 69.588,38.272 55.101,50.137C40.615,61.993 55.229,75 55.229,75L16.291,75C-1.073,74.927 0.032,62.925 0.023,62.788C0.014,62.642 -0.763,57.837 7.549,46.684C15.852,35.513 15.788,27.32 15.788,27.32L56.892,27.21C54.462,24.452 52.142,15.829 52.142,15.829ZM56.782,55.955L74.457,55.955C74.457,55.955 79.59,62.422 73.47,69.483C67.35,76.535 60.308,72.826 60.308,72.826C60.308,72.826 54.124,69.547 53.649,63.82C53.165,58.093 56.782,55.955 56.782,55.955Z"></path></g><g id="Blue"></g><g id="Green"></g><g id="Yellow"></g><g id="Orange"></g><g id="Red"></g><g id="Black"></g><g id="Blue1" serif:id="Blue"></g><g id="Green1" serif:id="Green"></g><g id="Yellow1" serif:id="Yellow"></g><g id="Orange1" serif:id="Orange"></g><g id="Red1" serif:id="Red"></g></symbol><symbol viewBox="0 0 75 75" id="warcrow-font-Switch"><path id="Switch-Box" serif:id="Switch Box" d="M0,37.5L37.5,0L75,37.5L37.5,75L0,37.5Z" style="fill:rgb(35,31,32);"></path><g id="Actions"></g><g id="Combat"></g><g id="Characters"></g><g id="Blue"></g><g id="Green"></g><g id="Yellow"></g><g id="Orange"></g><g id="Red"></g><g id="Black"></g><g id="Blue1" serif:id="Blue"></g><g id="Green1" serif:id="Green"></g><g id="Yellow1" serif:id="Yellow"></g><g id="Orange1" serif:id="Orange"></g><g id="Red1" serif:id="Red"></g></symbol><symbol id="warcrow-font-Wound"></symbol><symbol id="warcrow-font-Yellow-Dark"></symbol><symbol id="warcrow-font-Yellow-Light"></symbol><symbol id="warcrow-font-Yellow"></symbol></svg>