<?xml version="1.0" encoding="UTF-8" standalone="no"?>
<!DOCTYPE svg PUBLIC "-//W3C//DTD SVG 1.1//EN" "http://www.w3.org/Graphics/SVG/1.1/DTD/svg11.dtd">
<svg width="100%" height="100%" viewBox="0 0 91 91" version="1.1" xmlns="http://www.w3.org/2000/svg" xmlns:xlink="http://www.w3.org/1999/xlink" xml:space="preserve" xmlns:serif="http://www.serif.com/" style="fill-rule:evenodd;clip-rule:evenodd;stroke-miterlimit:1.856;">
    <g transform="matrix(1,0,0,1,-11.2009,-535.627)">
        <g id="Black" transform="matrix(6.12245,0,0,6.12245,-895.7,-131.757)">
            <g id="path339" transform="matrix(1.33333,0,-0.0116379,1.33333,148.707,120.43)">
                <path d="M5.102,-7.594C5.102,-7.594 6.63,-6.062 9.689,-3C9.689,-3 8.158,-1.468 5.1,1.594L0.513,-3C1.024,-3.507 1.785,-4.272 2.801,-5.297C3.815,-6.32 4.582,-7.084 5.102,-7.594ZM0.817,-3.094L5.202,-0.117L9.372,-3.012L5.198,-0.598L0.817,-3.094Z" style="fill:none;fill-rule:nonzero;stroke:white;stroke-width:0.93px;"/>
            </g>
            <g id="path340" transform="matrix(1.33333,0,-0.0116379,1.33333,148.707,120.43)">
                <path d="M5.102,-7.594C5.102,-7.594 6.63,-6.062 9.689,-3C9.689,-3 8.158,-1.468 5.1,1.594L0.513,-3C1.024,-3.507 1.785,-4.272 2.801,-5.297C3.815,-6.32 4.582,-7.084 5.102,-7.594ZM0.817,-3.094L5.202,-0.117L9.372,-3.012L5.198,-0.598L0.817,-3.094Z" style="fill:rgb(35,31,32);fill-rule:nonzero;"/>
            </g>
        </g>
    </g>
</svg>
