<?xml version="1.0" encoding="UTF-8" standalone="no"?><!DOCTYPE svg PUBLIC "-//W3C//DTD SVG 1.1//EN" "http://www.w3.org/Graphics/SVG/1.1/DTD/svg11.dtd"><svg width="100%" height="100%" viewBox="0 0 75 75" version="1.1" xmlns="http://www.w3.org/2000/svg" xmlns:xlink="http://www.w3.org/1999/xlink" xml:space="preserve" xmlns:serif="http://www.serif.com/" style="fill-rule:evenodd;clip-rule:evenodd;stroke-linejoin:round;stroke-miterlimit:2;"><g id="Actions"></g><g id="Combat"><path id="Melee-Attack" serif:id="Melee Attack" d="M0,0L8.646,1.716L49.255,36.793L47.774,38.274L33.637,33.587L38.324,47.723L36.843,49.205L1.716,8.646L0,0ZM53.13,40.534C54.528,41.764 60.805,42.995 70.313,34.692L71.401,35.78C71.401,35.78 60.454,50.31 63.14,55.03L70.547,66.63L73.795,67.158L75,75L67.149,73.795L66.622,70.547L55.239,63.274L55.231,63.266L55.097,63.174C50.418,60.378 35.78,71.401 35.78,71.401L34.684,70.313C42.995,60.805 41.764,54.528 40.542,53.139L42.811,50.862L38.827,38.827L50.862,42.819L53.13,40.534ZM48.594,56.729L60.738,60.747L56.729,48.594L44.576,44.576L48.594,56.729Z"/></g><g id="Characters"></g><g id="Blue"></g><g id="Green"></g><g id="Yellow"></g><g id="Orange"></g><g id="Red"></g><g id="Black"></g><g id="Blue1" serif:id="Blue"></g><g id="Green1" serif:id="Green"></g><g id="Yellow1" serif:id="Yellow"></g><g id="Orange1" serif:id="Orange"></g><g id="Red1" serif:id="Red"></g></svg>