<?xml version="1.0" encoding="UTF-8" standalone="no"?><!DOCTYPE svg PUBLIC "-//W3C//DTD SVG 1.1//EN" "http://www.w3.org/Graphics/SVG/1.1/DTD/svg11.dtd"><svg width="100%" height="100%" viewBox="0 0 48 75" version="1.1" xmlns="http://www.w3.org/2000/svg" xmlns:xlink="http://www.w3.org/1999/xlink" xml:space="preserve" xmlns:serif="http://www.serif.com/" style="fill-rule:evenodd;clip-rule:evenodd;stroke-linejoin:round;stroke-miterlimit:2;"><g id="Actions"></g><g id="Combat"><path id="Defense" d="M46.574,58.98L46.469,58.98C46.942,63.869 47.31,67.549 47.521,70.019L39.741,72.437C29.017,75.854 18.293,75.854 7.57,72.437L-0,70.019L5.362,25.232C12.222,21.947 19.923,20.711 28.491,21.552C34.51,22.131 39.346,23.55 43,25.863L46.574,58.98ZM31.856,65.393L31.856,45.944C31.856,43.631 31.015,41.712 29.332,40.161C27.65,38.558 25.653,37.822 23.34,37.953C21.158,38.032 19.345,38.9 17.873,40.582C16.401,42.264 15.665,44.235 15.665,46.469L15.665,65.393C18.109,66.918 20.817,67.706 23.76,67.706C26.704,67.706 29.385,66.918 31.856,65.393ZM45.733,23.655C38.426,19.66 31.12,17.663 23.76,17.663C16.453,17.663 9.147,19.66 1.787,23.655L1.787,6.098L10.829,1.472L10.829,10.303C11.801,10.04 13.168,9.725 14.929,9.357C16.743,8.936 18.188,8.674 19.24,8.516L19.24,-0L28.386,-0L28.386,8.621C29.438,8.831 30.909,9.147 32.802,9.567C34.747,9.935 36.087,10.172 36.797,10.303L36.797,1.472L45.733,6.098L45.733,23.655Z" style="fill-rule:nonzero;"/></g><g id="Characters"></g><g id="Blue"></g><g id="Green"></g><g id="Yellow"></g><g id="Orange"></g><g id="Red"></g><g id="Black"></g><g id="Blue1" serif:id="Blue"></g><g id="Green1" serif:id="Green"></g><g id="Yellow1" serif:id="Yellow"></g><g id="Orange1" serif:id="Orange"></g><g id="Red1" serif:id="Red"></g></svg>