<?xml version="1.0" encoding="UTF-8" standalone="no"?>
<!DOCTYPE svg PUBLIC "-//W3C//DTD SVG 1.1//EN" "http://www.w3.org/Graphics/SVG/1.1/DTD/svg11.dtd">
<svg width="100%" height="100%" viewBox="0 0 66 75" version="1.1" xmlns="http://www.w3.org/2000/svg" xmlns:xlink="http://www.w3.org/1999/xlink" xml:space="preserve" xmlns:serif="http://www.serif.com/" style="fill-rule:evenodd;clip-rule:evenodd;stroke-linejoin:round;stroke-miterlimit:2;">
    <g transform="matrix(1,0,0,1,-542.104,-133.361)">
        <g id="Hollow-Success" serif:id="Hollow Success" transform="matrix(13.8829,0,0,13.8829,540.468,195.852)">
            <path d="M2.462,-0.236L2.708,-0.822L2.848,-1.126L3.176,-1.091L3.809,-1.021L3.434,-1.536L3.235,-1.806L3.434,-2.076L3.809,-2.579L3.176,-2.521L2.848,-2.474L2.708,-2.79L2.462,-3.365L2.204,-2.79L2.075,-2.474L1.735,-2.521L1.114,-2.579L1.477,-2.076L1.676,-1.806L1.477,-1.536L1.114,-1.021L1.735,-1.091L2.075,-1.126L2.204,-0.822L2.462,-0.236ZM2.462,0.901L1.782,-0.634L0.118,-0.447L1.114,-1.806L0.118,-3.154L1.782,-2.966L2.462,-4.501L3.13,-2.966L4.805,-3.154L3.809,-1.806L4.805,-0.447L3.13,-0.634L2.462,0.901Z" style="fill-rule:nonzero;"/>
        </g>
    </g>
</svg>
