<?xml version="1.0" encoding="UTF-8" standalone="no"?><!DOCTYPE svg PUBLIC "-//W3C//DTD SVG 1.1//EN" "http://www.w3.org/Graphics/SVG/1.1/DTD/svg11.dtd"><svg width="100%" height="100%" viewBox="0 0 75 75" version="1.1" xmlns="http://www.w3.org/2000/svg" xmlns:xlink="http://www.w3.org/1999/xlink" xml:space="preserve" xmlns:serif="http://www.serif.com/" style="fill-rule:evenodd;clip-rule:evenodd;stroke-linejoin:round;stroke-miterlimit:2;"><g id="Actions"></g><g id="Combat"><path id="Ranged-Attack" serif:id="Ranged Attack" d="M4.206,0.347C2.337,1.353 0.966,3.026 0.344,5.072C-0.271,7.11 -0.057,9.264 0.949,11.141C1.945,13.019 3.627,14.381 5.674,15.004C6.413,15.226 7.169,15.342 7.925,15.342C8.406,15.351 8.895,15.315 9.367,15.226L32.905,38.906L14.956,56.748L8.664,56.099L0.005,64.713L8.05,66.76L10.043,74.813L18.711,66.199L18.132,60.29L36.26,42.279L59.735,65.896C59.681,66.279 59.646,66.68 59.655,67.08C59.664,67.827 59.77,68.584 59.993,69.322C60.616,71.369 61.986,73.042 63.855,74.048C65.021,74.68 66.293,74.991 67.575,75L67.673,75C68.42,74.991 69.185,74.875 69.924,74.653C71.971,74.039 73.644,72.668 74.658,70.791L74.996,70.141L70.627,67.792L70.271,68.442C69.897,69.153 69.266,69.67 68.491,69.901C67.726,70.132 66.907,70.052 66.204,69.678C65.501,69.296 64.976,68.664 64.745,67.89C64.647,67.552 64.603,67.196 64.62,66.849L64.861,66.368C68.082,59.747 68.812,51.623 66.934,43.525C65.19,35.987 61.381,28.868 55.873,22.79L64.656,14.051L65.991,19.409L73.395,1.673L55.624,8.979L61.515,10.474L52.518,19.417C46.467,13.864 39.374,10.011 31.855,8.214C24.175,6.389 16.486,6.923 10.043,9.682L10.034,9.673L9.937,9.727C9.616,9.878 9.305,10.011 8.984,10.163L8.744,10.278C8.21,10.421 7.65,10.412 7.107,10.252C6.332,10.02 5.701,9.495 5.318,8.792C4.944,8.089 4.864,7.27 5.096,6.505C5.327,5.731 5.852,5.099 6.555,4.725L7.205,4.369L4.855,0L4.206,0.347ZM14.484,13.331C25.358,9.949 38.831,13.722 48.994,22.924L36.429,35.409L14.484,13.331ZM39.775,38.781L52.34,26.296C61.479,36.503 65.172,50.003 61.719,60.86L39.775,38.781Z"/></g><g id="Characters"></g><g id="Blue"></g><g id="Green"></g><g id="Yellow"></g><g id="Orange"></g><g id="Red"></g><g id="Black"></g><g id="Blue1" serif:id="Blue"></g><g id="Green1" serif:id="Green"></g><g id="Yellow1" serif:id="Yellow"></g><g id="Orange1" serif:id="Orange"></g><g id="Red1" serif:id="Red"></g></svg>