<?xml version="1.0" encoding="UTF-8" standalone="no"?>
<!DOCTYPE svg PUBLIC "-//W3C//DTD SVG 1.1//EN" "http://www.w3.org/Graphics/SVG/1.1/DTD/svg11.dtd">
<svg width="100%" height="100%" viewBox="0 0 75 75" version="1.1" xmlns="http://www.w3.org/2000/svg" xmlns:xlink="http://www.w3.org/1999/xlink" xml:space="preserve" xmlns:serif="http://www.serif.com/" style="fill-rule:evenodd;clip-rule:evenodd;stroke-linejoin:round;stroke-miterlimit:2;">
    <g transform="matrix(1,0,0,1,-253.094,-20.3527)">
        <g id="Red" transform="matrix(8.16327,0,-0.0712526,8.16327,248.704,82.811)">
            <path d="M5.112,-7.651C5.112,-7.651 6.637,-6.119 9.687,-3.057C8.688,-2.05 7.16,-0.517 5.11,1.536C4.595,1.027 3.833,0.262 2.816,-0.761C1.799,-1.792 1.031,-2.565 0.511,-3.081C2.547,-5.102 4.08,-6.626 5.112,-7.651ZM4.869,-4.604L4.88,-4.616C4.857,-4.593 4.822,-4.563 4.775,-4.534C4.954,-4.563 5.074,-4.516 5.14,-4.393C5.179,-4.323 5.203,-4.264 5.212,-4.218C5.227,-4.153 5.248,-4.059 5.273,-3.936C5.303,-3.81 5.328,-3.717 5.346,-3.655C5.41,-3.356 5.374,-3.116 5.235,-2.928C5.39,-2.928 5.493,-2.858 5.541,-2.718C5.565,-2.647 5.59,-2.559 5.614,-2.46C5.62,-2.404 5.639,-2.322 5.663,-2.214C5.687,-2.102 5.703,-2.02 5.712,-1.968C5.775,-1.733 5.731,-1.487 5.578,-1.229C6.105,-1.61 6.509,-1.9 6.789,-2.096C6.578,-2.055 6.443,-2.135 6.388,-2.331C6.379,-2.369 6.343,-2.53 6.279,-2.811C6.27,-2.817 6.27,-2.829 6.278,-2.846C6.284,-2.87 6.29,-2.882 6.29,-2.882C6.304,-2.896 6.328,-2.911 6.36,-2.928C6.398,-2.952 6.421,-2.967 6.43,-2.975C6.728,-2.732 6.884,-2.603 6.902,-2.589C7.067,-2.471 7.222,-2.46 7.371,-2.553C7.441,-2.583 7.674,-2.741 8.07,-3.022C7.906,-2.999 7.759,-3.04 7.635,-3.151C7.555,-3.221 7.446,-3.318 7.305,-3.444C7.169,-3.576 7.095,-3.646 7.08,-3.655C7.086,-3.678 7.108,-3.763 7.148,-3.913C7.194,-4.059 7.222,-4.171 7.239,-4.241C7.306,-4.607 7.25,-4.947 7.078,-5.261C6.973,-5.454 6.829,-5.571 6.641,-5.612C6.459,-5.65 6.281,-5.606 6.103,-5.483C5.643,-5.146 5.233,-4.853 4.869,-4.604ZM0.968,-3.022C1.44,-2.709 2.147,-2.228 3.09,-1.581C4.033,-0.939 4.744,-0.459 5.224,-0.139C5.611,-0.412 6.255,-0.86 7.158,-1.487C8.066,-2.12 8.759,-2.603 9.242,-2.94C9.225,-2.94 9.187,-2.923 9.126,-2.893C8.706,-2.65 8.07,-2.284 7.225,-1.792C6.377,-1.3 5.744,-0.928 5.325,-0.678C5.255,-0.646 5.19,-0.646 5.137,-0.678C4.696,-0.928 4.045,-1.3 3.182,-1.792C2.317,-2.284 1.669,-2.65 1.239,-2.893C1.23,-2.899 1.195,-2.923 1.133,-2.964C1.068,-3.002 1.018,-3.028 0.98,-3.046L0.968,-3.022ZM6.386,-3.995C6.345,-3.971 6.292,-3.93 6.223,-3.878C6.153,-3.822 6.097,-3.784 6.06,-3.761C6.05,-3.822 6.029,-3.913 5.999,-4.03C5.965,-4.147 5.944,-4.229 5.938,-4.276C5.938,-4.305 5.949,-4.326 5.973,-4.335C6.033,-4.396 6.147,-4.481 6.31,-4.593C6.409,-4.654 6.486,-4.628 6.533,-4.511C6.572,-4.431 6.582,-4.346 6.559,-4.253C6.542,-4.165 6.505,-4.095 6.444,-4.042C6.444,-4.033 6.435,-4.024 6.421,-4.018C6.403,-4.01 6.391,-4.001 6.386,-3.995Z" style="fill:rgb(210,35,42);fill-rule:nonzero;"/>
        </g>
    </g>
</svg>
