<?xml version="1.0" encoding="UTF-8" standalone="no"?>
<!DOCTYPE svg PUBLIC "-//W3C//DTD SVG 1.1//EN" "http://www.w3.org/Graphics/SVG/1.1/DTD/svg11.dtd">
<svg width="100%" height="100%" viewBox="0 0 75 75" version="1.1" xmlns="http://www.w3.org/2000/svg" xmlns:xlink="http://www.w3.org/1999/xlink" xml:space="preserve" xmlns:serif="http://www.serif.com/" style="fill-rule:evenodd;clip-rule:evenodd;stroke-linejoin:round;stroke-miterlimit:2;">
    <g transform="matrix(1,0,0,1,-253.094,-340.411)">
        <g id="Green" transform="matrix(8.16327,0,-0.0712526,8.16327,248.701,402.681)">
            <path d="M5.112,-7.628L9.687,-3.034C9.687,-3.034 8.16,-1.502 5.11,1.559C5.11,1.559 3.576,0.027 0.512,-3.034C2.562,-5.079 4.096,-6.612 5.112,-7.628ZM5.137,-3.398C5.129,-3.357 5.127,-3.269 5.128,-3.128C5.135,-2.987 5.13,-2.87 5.108,-2.777C5.091,-2.689 5.045,-2.607 4.969,-2.53C5.101,-2.56 5.198,-2.522 5.263,-2.413C5.269,-2.396 5.293,-2.355 5.335,-2.284C5.373,-2.214 5.406,-2.158 5.43,-2.12C5.578,-1.886 5.767,-1.739 5.996,-1.687C6.222,-1.64 6.453,-1.693 6.686,-1.851C6.896,-1.974 7.076,-2.182 7.231,-2.472C7.269,-2.548 7.306,-2.607 7.347,-2.648C7.486,-2.803 7.639,-2.815 7.804,-2.683C7.698,-3.096 7.636,-3.389 7.62,-3.562C7.602,-3.632 7.578,-3.72 7.548,-3.831C7.523,-3.948 7.502,-4.042 7.487,-4.112C7.468,-4.189 7.462,-4.279 7.461,-4.382C7.46,-4.49 7.477,-4.596 7.517,-4.698C7.43,-4.596 7.323,-4.444 7.192,-4.241C7.1,-4.101 7.031,-3.998 6.984,-3.937C6.944,-3.872 6.871,-3.799 6.764,-3.714C6.653,-3.635 6.536,-3.585 6.413,-3.562C6.437,-3.544 6.475,-3.527 6.531,-3.503C6.593,-3.486 6.64,-3.471 6.672,-3.456C6.734,-3.415 6.767,-3.368 6.767,-3.316C6.797,-3.19 6.769,-3.061 6.677,-2.929C6.59,-2.794 6.485,-2.718 6.362,-2.695C6.111,-2.662 5.945,-2.779 5.867,-3.046C5.737,-3.468 5.807,-3.855 6.08,-4.206C6.117,-4.253 6.213,-4.315 6.371,-4.394C6.464,-4.441 6.517,-4.411 6.536,-4.312C6.551,-4.241 6.563,-4.177 6.572,-4.124C6.632,-4.303 6.712,-4.549 6.812,-4.862C6.918,-5.182 6.989,-5.402 7.029,-5.519C6.927,-5.407 6.813,-5.378 6.69,-5.425L6.62,-5.425C6.344,-5.431 6.087,-5.32 5.849,-5.085C5.437,-4.669 5.201,-4.107 5.137,-3.398L5.137,-3.398ZM0.981,-2.987C1.458,-2.665 2.163,-2.185 3.091,-1.546C4.025,-0.913 4.733,-0.436 5.213,-0.116C5.717,-0.468 7.059,-1.4 9.243,-2.917C9.226,-2.917 9.188,-2.9 9.126,-2.87C8.278,-2.378 7.007,-1.643 5.314,-0.667C5.249,-0.626 5.185,-0.626 5.114,-0.667C4.673,-0.916 4.007,-1.294 3.112,-1.804C2.223,-2.311 1.552,-2.695 1.098,-2.952C1.081,-2.958 1.063,-2.967 1.039,-2.976C1.016,-2.99 0.995,-3.002 0.981,-3.011L0.981,-2.987Z" style="fill:rgb(65,173,73);fill-rule:nonzero;"/>
        </g>
    </g>
</svg>
