<?xml version="1.0" encoding="UTF-8" standalone="no"?>
<!DOCTYPE svg PUBLIC "-//W3C//DTD SVG 1.1//EN" "http://www.w3.org/Graphics/SVG/1.1/DTD/svg11.dtd">
<svg width="100%" height="100%" viewBox="0 0 89 89" version="1.1" xmlns="http://www.w3.org/2000/svg" xmlns:xlink="http://www.w3.org/1999/xlink" xml:space="preserve" xmlns:serif="http://www.serif.com/" style="fill-rule:evenodd;clip-rule:evenodd;stroke-linejoin:round;">
    <g transform="matrix(1,0,0,1,-129.398,-118.914)">
        <g id="Orange" transform="matrix(6.94645,0,0,6.94645,-731.323,535.792)">
            <g id="path8867" transform="matrix(1.33333,0,0,1.33333,124.316,-49.9973)">
                <path d="M4.499,-6.762C4.499,-6.762 5.846,-5.414 8.542,-2.719C8.096,-2.273 7.423,-1.597 6.526,-0.691C5.627,0.214 4.95,0.891 4.499,1.336C4.045,0.891 3.368,0.217 2.471,-0.68C1.572,-1.585 0.895,-2.265 0.444,-2.719C1.349,-3.609 2.7,-4.957 4.499,-6.762ZM4.428,-2.801C4.428,-2.525 4.382,-2.335 4.288,-2.227C4.396,-2.25 4.487,-2.191 4.557,-2.051C4.604,-1.963 4.651,-1.887 4.698,-1.816C4.915,-1.503 5.193,-1.389 5.53,-1.477C5.747,-1.529 5.952,-1.679 6.139,-1.922C6.482,-2.358 6.646,-2.862 6.632,-3.434C6.632,-3.697 6.678,-3.885 6.772,-3.996C6.646,-3.979 6.552,-4.037 6.491,-4.172C6.444,-4.248 6.391,-4.336 6.339,-4.43C6.128,-4.717 5.858,-4.822 5.53,-4.746C5.296,-4.69 5.088,-4.538 4.909,-4.289C4.572,-3.858 4.411,-3.363 4.428,-2.801ZM4.675,-0.199C5.026,-0.439 5.553,-0.809 6.257,-1.301C6.96,-1.793 7.49,-2.159 7.85,-2.402C7.88,-2.426 7.927,-2.461 7.991,-2.508C8.061,-2.555 8.114,-2.59 8.155,-2.613L8.143,-2.637C8.135,-2.628 8.114,-2.616 8.085,-2.602C8.061,-2.584 8.044,-2.578 8.038,-2.578C7.663,-2.358 7.103,-2.033 6.362,-1.605C5.618,-1.175 5.061,-0.855 4.686,-0.645C4.631,-0.604 4.569,-0.604 4.499,-0.645C4.1,-0.87 3.506,-1.201 2.718,-1.641C1.927,-2.086 1.338,-2.426 0.948,-2.66C0.93,-2.66 0.913,-2.663 0.889,-2.672C0.872,-2.687 0.86,-2.698 0.854,-2.707C0.86,-2.684 0.872,-2.666 0.889,-2.66C1.288,-2.385 1.891,-1.972 2.706,-1.418C3.526,-0.87 4.135,-0.46 4.534,-0.188C4.572,-0.164 4.619,-0.167 4.675,-0.199ZM5.471,-2.344C5.322,-2.312 5.205,-2.379 5.12,-2.543C5.003,-2.736 4.982,-2.982 5.061,-3.281C5.114,-3.516 5.219,-3.686 5.378,-3.797C5.477,-3.867 5.58,-3.891 5.682,-3.867C5.782,-3.844 5.864,-3.776 5.928,-3.668C5.999,-3.533 6.034,-3.375 6.034,-3.187C6.025,-2.897 5.928,-2.666 5.741,-2.496C5.647,-2.417 5.556,-2.367 5.471,-2.344Z" style="fill:none;fill-rule:nonzero;stroke:rgb(35,31,32);stroke-width:1.5px;"/>
            </g>
            <g id="path8868" transform="matrix(1.33333,0,0,1.33333,124.316,-49.9973)">
                <path d="M4.499,-6.762C4.499,-6.762 5.846,-5.414 8.542,-2.719C8.096,-2.273 7.423,-1.597 6.526,-0.691C5.627,0.214 4.95,0.891 4.499,1.336C4.045,0.891 3.368,0.217 2.471,-0.68C1.572,-1.585 0.895,-2.265 0.444,-2.719C1.349,-3.609 2.7,-4.957 4.499,-6.762ZM4.428,-2.801C4.428,-2.525 4.382,-2.335 4.288,-2.227C4.396,-2.25 4.487,-2.191 4.557,-2.051C4.604,-1.963 4.651,-1.887 4.698,-1.816C4.915,-1.503 5.193,-1.389 5.53,-1.477C5.747,-1.529 5.952,-1.679 6.139,-1.922C6.482,-2.358 6.646,-2.862 6.632,-3.434C6.632,-3.697 6.678,-3.885 6.772,-3.996C6.646,-3.979 6.552,-4.037 6.491,-4.172C6.444,-4.248 6.391,-4.336 6.339,-4.43C6.128,-4.717 5.858,-4.822 5.53,-4.746C5.296,-4.69 5.088,-4.538 4.909,-4.289C4.572,-3.858 4.411,-3.363 4.428,-2.801ZM4.675,-0.199C5.026,-0.439 5.553,-0.809 6.257,-1.301C6.96,-1.793 7.49,-2.159 7.85,-2.402C7.88,-2.426 7.927,-2.461 7.991,-2.508C8.061,-2.555 8.114,-2.59 8.155,-2.613L8.143,-2.637C8.135,-2.628 8.114,-2.616 8.085,-2.602C8.061,-2.584 8.044,-2.578 8.038,-2.578C7.663,-2.358 7.103,-2.033 6.362,-1.605C5.618,-1.175 5.061,-0.855 4.686,-0.645C4.631,-0.604 4.569,-0.604 4.499,-0.645C4.1,-0.87 3.506,-1.201 2.718,-1.641C1.927,-2.086 1.338,-2.426 0.948,-2.66C0.93,-2.66 0.913,-2.663 0.889,-2.672C0.872,-2.687 0.86,-2.698 0.854,-2.707C0.86,-2.684 0.872,-2.666 0.889,-2.66C1.288,-2.385 1.891,-1.972 2.706,-1.418C3.526,-0.87 4.135,-0.46 4.534,-0.188C4.572,-0.164 4.619,-0.167 4.675,-0.199ZM5.471,-2.344C5.322,-2.312 5.205,-2.379 5.12,-2.543C5.003,-2.736 4.982,-2.982 5.061,-3.281C5.114,-3.516 5.219,-3.686 5.378,-3.797C5.477,-3.867 5.58,-3.891 5.682,-3.867C5.782,-3.844 5.864,-3.776 5.928,-3.668C5.999,-3.533 6.034,-3.375 6.034,-3.187C6.025,-2.897 5.928,-2.666 5.741,-2.496C5.647,-2.417 5.556,-2.367 5.471,-2.344Z" style="fill:rgb(244,121,42);fill-rule:nonzero;"/>
            </g>
        </g>
    </g>
</svg>
